<svg width="127" height="137" viewBox="0 0 127 137" fill="none" xmlns="http://www.w3.org/2000/svg">
<g clip-path="url(#clip0_510_264)">
<g clip-path="url(#clip1_510_264)">
<path d="M127.718 5H-0.282227V133H127.718V5Z" fill="white"/>
<path d="M59.9355 93.5227C54.3819 93.5227 50.8491 90.1536 50.8491 85.8805C50.8491 67.5941 98.9366 63.9333 98.9366 44.5136C98.9366 32.6667 85.2134 27.5605 67.6955 27.5605C57.0395 27.5605 44.991 29.5328 33.8011 33.0619V56.2288C50.2912 44.2181 68.6128 39.0768 80.4144 39.0768C87.8352 39.0768 92.8704 41.1472 92.8704 44.8571C92.8704 60.1413 26.5488 57.7195 26.5488 90.7461C26.5488 103.405 35.2534 110.658 47.4998 110.658C66.0235 110.658 80.0347 92.6565 90.5168 70.7131L92.6406 71.4757C87.12 84.8854 75.696 99.5888 73.471 109.041H97.319V60.1419H91.8112C83.8166 77.5147 72.1008 93.5227 59.9355 93.5227Z" fill="black"/>
</g>
</g>
<defs>
<clipPath id="clip0_510_264">
<rect width="127" height="137" fill="white"/>
</clipPath>
<clipPath id="clip1_510_264">
<rect x="-0.282227" y="5" width="128" height="128" rx="10.6667" fill="white"/>
</clipPath>
</defs>
</svg>
