<svg width="69" height="69" viewBox="0 0 69 69" fill="none" xmlns="http://www.w3.org/2000/svg">
<path d="M62.7039 11.3264C58.2764 22.3664 47.1789 37.3739 37.8926 44.8202L32.2289 49.3627C31.5101 49.8802 30.7914 50.3402 29.9864 50.6564C29.9864 50.1389 29.9576 49.5639 29.8714 49.0177C29.5551 46.6027 28.4626 44.3602 26.5364 42.4339C24.5814 40.4789 22.1951 39.3289 19.7514 39.0127C19.1764 38.9839 18.6014 38.9264 18.0264 38.9839C18.3426 38.0927 18.8314 37.2589 19.4351 36.5689L23.9201 30.9052C31.3376 21.6189 46.4026 10.4639 57.4139 6.06516C59.1101 5.43266 60.7489 5.89267 61.7839 6.95642C62.8764 8.02017 63.3939 9.65892 62.7039 11.3264Z" stroke="white" stroke-opacity="0.8" stroke-width="4" stroke-linecap="round" stroke-linejoin="round"/>
<path d="M29.9857 50.659C29.9857 53.8215 28.7782 56.8403 26.5069 59.1403C24.7532 60.894 22.3669 62.1015 19.5207 62.4753L12.4482 63.2515C8.59569 63.6828 5.28944 60.4053 5.74944 56.4953L6.52569 49.4228C7.21569 43.1265 12.4769 39.1015 18.0544 38.9865C18.6294 38.9578 19.2332 38.9865 19.7794 39.0153C22.2232 39.3315 24.6094 40.4528 26.5644 42.4365C28.4907 44.3628 29.5832 46.6053 29.8994 49.0203C29.9282 49.5665 29.9857 50.1128 29.9857 50.659Z" stroke="white" stroke-opacity="0.8" stroke-width="4" stroke-linecap="round" stroke-linejoin="round"/>
<path d="M40.9396 41.6027C40.9396 34.0989 34.8446 28.0039 27.3408 28.0039" stroke="white" stroke-opacity="0.8" stroke-width="4" stroke-linecap="round" stroke-linejoin="round"/>
</svg>
