<svg width="1440" height="812" viewBox="0 0 1440 812" fill="none" xmlns="http://www.w3.org/2000/svg">
<g clip-path="url(#clip0_490_459)">
<rect width="1440" height="812" fill="white"/>
<rect y="-2" width="1440" height="1026" fill="#150B20"/>
<g filter="url(#filter0_f_490_459)">
<g filter="url(#filter1_f_490_459)">
<path d="M369.637 233C369.637 398.409 341.909 504 176.5 504C11.0907 504 -123 369.909 -123 204.5C-123 39.0907 11.0907 -95 176.5 -95C341.909 -95 369.637 67.5907 369.637 233Z" fill="#211231" fill-opacity="0.9"/>
</g>
<g filter="url(#filter2_f_490_459)">
<path d="M1036.87 565.557C1162.88 458.403 1261.28 411.123 1368.44 537.132C1475.59 663.142 1460.3 852.158 1334.29 959.311C1208.29 1066.46 1019.27 1051.18 912.116 925.17C804.962 799.161 910.862 672.711 1036.87 565.557Z" fill="#211231" fill-opacity="0.9"/>
</g>
<g filter="url(#filter3_f_490_459)">
<path d="M992.444 -10.3879C1149.55 -7.92547 1277.12 -19.0527 1274.65 138.053C1272.19 295.159 1143.41 383.526 986.309 381.064C829.203 378.602 703.26 286.242 705.722 129.136C708.185 -27.9699 835.339 -12.8503 992.444 -10.3879Z" fill="#211231" fill-opacity="0.9"/>
</g>
<g filter="url(#filter4_f_490_459)">
<path d="M698.5 695.93C698.5 877.493 551.314 1024.68 369.75 1024.68C188.186 1024.68 41 877.493 41 695.93C41 514.366 188.186 520.019 369.75 520.019C551.314 520.019 698.5 514.366 698.5 695.93Z" fill="#211231" fill-opacity="0.9"/>
</g>
</g>
</g>
<defs>
<filter id="filter0_f_490_459" x="-267.9" y="-239.9" width="1852.58" height="1415.46" filterUnits="userSpaceOnUse" color-interpolation-filters="sRGB">
<feFlood flood-opacity="0" result="BackgroundImageFix"/>
<feBlend mode="normal" in="SourceGraphic" in2="BackgroundImageFix" result="shape"/>
<feGaussianBlur stdDeviation="72.45" result="effect1_foregroundBlur_490_459"/>
</filter>
<filter id="filter1_f_490_459" x="-135.1" y="-107.1" width="516.837" height="623.2" filterUnits="userSpaceOnUse" color-interpolation-filters="sRGB">
<feFlood flood-opacity="0" result="BackgroundImageFix"/>
<feBlend mode="normal" in="SourceGraphic" in2="BackgroundImageFix" result="shape"/>
<feGaussianBlur stdDeviation="6.05" result="effect1_foregroundBlur_490_459"/>
</filter>
<filter id="filter2_f_490_459" x="855.84" y="449.562" width="596.042" height="593.196" filterUnits="userSpaceOnUse" color-interpolation-filters="sRGB">
<feFlood flood-opacity="0" result="BackgroundImageFix"/>
<feBlend mode="normal" in="SourceGraphic" in2="BackgroundImageFix" result="shape"/>
<feGaussianBlur stdDeviation="6.05" result="effect1_foregroundBlur_490_459"/>
</filter>
<filter id="filter3_f_490_459" x="693.587" y="-24.0063" width="593.2" height="417.22" filterUnits="userSpaceOnUse" color-interpolation-filters="sRGB">
<feFlood flood-opacity="0" result="BackgroundImageFix"/>
<feBlend mode="normal" in="SourceGraphic" in2="BackgroundImageFix" result="shape"/>
<feGaussianBlur stdDeviation="6.05" result="effect1_foregroundBlur_490_459"/>
</filter>
<filter id="filter4_f_490_459" x="28.9" y="507.9" width="681.7" height="528.88" filterUnits="userSpaceOnUse" color-interpolation-filters="sRGB">
<feFlood flood-opacity="0" result="BackgroundImageFix"/>
<feBlend mode="normal" in="SourceGraphic" in2="BackgroundImageFix" result="shape"/>
<feGaussianBlur stdDeviation="6.05" result="effect1_foregroundBlur_490_459"/>
</filter>
<clipPath id="clip0_490_459">
<rect width="1440" height="812" fill="white"/>
</clipPath>
</defs>
</svg>
