<svg width="147" height="137" viewBox="0 0 147 137" fill="none" xmlns="http://www.w3.org/2000/svg">
<rect width="145.562" height="137" fill="white"/>
<path d="M62.3541 127.114C58.8718 127.114 55.713 126.282 52.8779 124.618C50.0736 122.954 47.8548 120.658 46.2215 117.73C44.619 114.772 43.8178 111.474 43.8178 107.838V103.447C43.8178 103.2 43.941 103.077 44.1876 103.077H54.9118C55.1583 103.077 55.2816 103.246 55.2816 103.585V107.838C55.2816 110.149 55.9442 112.045 57.2693 113.524C58.5944 114.972 60.2893 115.696 62.3541 115.696C64.2647 115.696 65.9134 114.911 67.3002 113.339C68.6869 111.736 69.3803 109.903 69.3803 107.838V60.7808C69.3803 60.5343 69.5036 60.411 69.7501 60.411H80.3819C80.6284 60.411 80.7517 60.5651 80.7517 60.8733L80.8441 107.838C80.8441 111.29 80.0121 114.479 78.348 117.407C76.653 120.365 74.4188 122.723 71.6453 124.479C68.8718 126.236 65.7747 127.114 62.3541 127.114ZM112.569 127.114C109.21 127.114 106.113 126.251 103.278 124.525C100.474 122.8 98.2242 120.504 96.5293 117.638C94.8652 114.741 94.0331 111.567 94.0331 108.115V103.77C94.0331 103.431 94.1872 103.262 94.4953 103.262H105.127C105.374 103.262 105.497 103.431 105.497 103.77V108.115C105.497 110.18 106.19 111.968 107.577 113.478C108.964 114.957 110.628 115.696 112.569 115.696C114.542 115.696 116.221 114.941 117.608 113.431C118.995 111.89 119.688 110.119 119.688 108.115C119.688 105.804 118.178 103.786 115.158 102.06C114.665 101.752 114.018 101.382 113.217 100.951C112.446 100.488 111.522 99.9644 110.443 99.3789C109.364 98.7933 108.317 98.2232 107.3 97.6685C106.283 97.083 105.297 96.5283 104.341 96.0044C100.89 93.9705 98.3166 91.4281 96.6217 88.3773C94.9576 85.2956 94.1255 81.8441 94.1255 78.0228C94.1255 74.5097 94.9884 71.3356 96.7142 68.5004C98.4399 65.6961 100.69 63.4773 103.463 61.844C106.267 60.1799 109.303 59.3478 112.569 59.3478C115.928 59.3478 119.01 60.1799 121.814 61.844C124.619 63.5389 126.853 65.7886 128.517 68.5929C130.212 71.3972 131.059 74.5405 131.059 78.0228V85.7886C131.059 86.0352 130.936 86.1585 130.69 86.1585H120.058C119.811 86.1585 119.688 86.0352 119.688 85.7886L119.596 78.0228C119.596 75.804 118.902 74.0012 117.515 72.6145C116.129 71.2277 114.48 70.5343 112.569 70.5343C110.628 70.5343 108.964 71.2739 107.577 72.7532C106.19 74.2324 105.497 75.9889 105.497 78.0228C105.497 80.0875 105.928 81.8133 106.791 83.2C107.685 84.5868 109.303 85.9119 111.645 87.1754C111.891 87.2987 112.462 87.6068 113.355 88.0999C114.249 88.593 115.235 89.1477 116.314 89.764C117.423 90.3495 118.425 90.8888 119.318 91.3819C120.212 91.8441 120.751 92.1215 120.936 92.2139C124.079 93.9705 126.56 96.1277 128.378 98.6855C130.227 101.243 131.152 104.387 131.152 108.115C131.152 111.721 130.32 114.957 128.656 117.823C126.961 120.689 124.711 122.954 121.907 124.618C119.103 126.282 115.99 127.114 112.569 127.114Z" fill="black"/>
</svg>
