<svg width="69" height="69" viewBox="0 0 69 69" fill="none" xmlns="http://www.w3.org/2000/svg">
<path d="M14.3457 43.0377V22.9531" stroke="white" stroke-width="4.30383" stroke-linecap="round" stroke-linejoin="round"/>
<path d="M15.0632 63.1226C20.2133 63.1226 24.3882 58.9476 24.3882 53.7976C24.3882 48.6476 20.2133 44.4727 15.0632 44.4727C9.91321 44.4727 5.73828 48.6476 5.73828 53.7976C5.73828 58.9476 9.91321 63.1226 15.0632 63.1226Z" stroke="white" stroke-width="4.30383" stroke-linecap="round" stroke-linejoin="round"/>
<path d="M14.3459 22.9536C19.0998 22.9536 22.9536 19.0998 22.9536 14.3459C22.9536 9.59206 19.0998 5.73828 14.3459 5.73828C9.59206 5.73828 5.73828 9.59206 5.73828 14.3459C5.73828 19.0998 9.59206 22.9536 14.3459 22.9536Z" stroke="white" stroke-width="4.30383" stroke-linecap="round" stroke-linejoin="round"/>
<path d="M54.5154 22.9536C59.2692 22.9536 63.123 19.0998 63.123 14.3459C63.123 9.59206 59.2692 5.73828 54.5154 5.73828C49.7615 5.73828 45.9077 9.59206 45.9077 14.3459C45.9077 19.0998 49.7615 22.9536 54.5154 22.9536Z" stroke="white" stroke-width="4.30383" stroke-linecap="round" stroke-linejoin="round"/>
<path d="M14.7192 43.0392C16.0104 38.018 20.6011 34.288 26.024 34.3167L35.8654 34.3454C43.3827 34.3741 49.7811 29.5538 52.1338 22.8398" stroke="white" stroke-width="4.30383" stroke-linecap="round" stroke-linejoin="round"/>
</svg>
