<svg width="132" height="128" viewBox="0 0 132 128" fill="none" xmlns="http://www.w3.org/2000/svg">
<g clip-path="url(#clip0_510_321)">
<path d="M23.2479 0H108.034C120.889 0 131.282 10.3932 131.282 23.2479V104.752C131.282 117.607 120.889 128 108.034 128H23.2479C10.3932 128 0 117.607 0 104.752V23.2479C0 10.3932 10.3932 0 23.2479 0Z" fill="white"/>
<path d="M29.5386 89.764V33.4768C29.5386 33.0939 29.7027 32.8751 30.0856 32.8751C31.0155 32.8751 31.8907 32.8751 33.1488 32.8204C34.4617 32.7657 35.8292 32.7657 37.3061 32.711C38.783 32.6563 40.3693 32.6563 42.0651 32.6016C43.7608 32.5469 45.4018 32.5469 47.0428 32.5469C51.5283 32.5469 55.248 33.0939 58.3112 34.2426C61.0463 35.1725 63.5625 36.7041 65.6411 38.7281C67.3916 40.4785 68.7591 42.6118 69.6343 44.964C70.4548 47.2614 70.8924 49.6135 70.8924 52.0751C70.8924 56.7794 69.7984 60.6631 67.6104 63.7264C65.4223 66.7896 62.3591 69.087 58.8035 70.3999C55.0839 71.7674 50.9813 72.2597 46.4958 72.2597C45.183 72.2597 44.3078 72.2597 43.7608 72.205C43.2138 72.1503 42.448 72.1503 41.4087 72.1503V89.7093C41.4634 90.0922 41.1899 90.4204 40.8069 90.4751C40.7522 90.4751 40.6975 90.4751 40.5881 90.4751H30.195C29.7574 90.4751 29.5386 90.2563 29.5386 89.764ZM41.4634 43.4323V61.8118C42.2292 61.8665 42.9403 61.9212 43.5967 61.9212H46.4958C48.6292 61.9212 50.7625 61.593 52.7864 60.9366C54.5369 60.4443 56.0685 59.405 57.2719 58.0375C58.4206 56.67 58.9676 54.8101 58.9676 52.4033C59.0223 50.7076 58.5847 49.0118 57.7095 47.5349C56.7796 46.1127 55.4668 45.0187 53.8805 44.417C51.8565 43.5964 49.6685 43.2682 47.4258 43.3229C46.0035 43.3229 44.7454 43.3229 43.7061 43.3776C42.6121 43.3229 41.8463 43.3776 41.4634 43.4323Z" fill="black"/>
<path d="M105.026 58.4757C103.385 57.6005 101.634 56.9987 99.7743 56.6158C97.7504 56.1782 95.7264 55.9047 93.6478 55.9047C92.5538 55.85 91.4051 56.0141 90.3658 56.2876C89.6546 56.4517 89.0529 56.8346 88.67 57.3817C88.3965 57.8193 88.2324 58.3663 88.2324 58.8586C88.2324 59.3509 88.4512 59.8432 88.7794 60.2808C89.2717 60.8825 89.9282 61.3748 90.6393 61.7577C91.8974 62.4141 93.2102 63.0158 94.523 63.5628C97.4769 64.5475 100.321 65.915 102.947 67.556C104.752 68.7047 106.229 70.2364 107.268 72.0962C108.144 73.8466 108.581 75.7611 108.526 77.7304C108.581 80.3013 107.815 82.8722 106.393 85.0056C104.861 87.1936 102.728 88.8893 100.267 89.874C97.5863 91.0227 94.3042 91.6244 90.3658 91.6244C87.8495 91.6244 85.388 91.4056 82.9264 90.9133C81.0119 90.5851 79.0974 89.9834 77.347 89.1628C76.964 88.944 76.6906 88.5611 76.7453 88.1235V78.6056C76.7453 78.4415 76.7999 78.2227 76.9641 78.1133C77.1282 78.0039 77.2923 78.0586 77.4564 78.168C79.5897 79.4261 81.8324 80.3013 84.2393 80.8483C86.3179 81.3953 88.5059 81.6688 90.694 81.6688C92.7726 81.6688 94.2495 81.3953 95.2341 80.903C96.1094 80.5201 96.7111 79.5902 96.7111 78.6056C96.7111 77.8398 96.2735 77.1287 95.3982 76.4175C94.523 75.7064 92.7179 74.8859 90.0376 73.8466C87.2478 72.862 84.6769 71.5492 82.27 69.9082C80.5743 68.7047 79.1521 67.1184 78.1128 65.2586C77.2376 63.5082 76.8 61.5936 76.8547 59.6791C76.8547 57.327 77.5111 55.0842 78.7145 53.0603C80.082 50.8723 82.1059 49.1218 84.4581 48.0278C87.029 46.715 90.2564 46.1133 94.1401 46.1133C96.3829 46.1133 98.6803 46.2774 100.923 46.6056C102.564 46.8244 104.15 47.262 105.627 47.8637C105.846 47.9184 106.065 48.1372 106.174 48.356C106.229 48.5748 106.284 48.7936 106.284 49.0124V57.9287C106.284 58.1475 106.174 58.3663 106.01 58.4757C105.518 58.5851 105.244 58.5851 105.026 58.4757Z" fill="black"/>
</g>
<defs>
<clipPath id="clip0_510_321">
<rect width="131.282" height="128" fill="white"/>
</clipPath>
</defs>
</svg>
