<svg width="69" height="69" viewBox="0 0 69 69" fill="none" xmlns="http://www.w3.org/2000/svg">
<path d="M15.7805 28.692C21.3267 28.692 25.8228 24.1959 25.8228 18.6497C25.8228 13.1035 21.3267 8.60742 15.7805 8.60742C10.2344 8.60742 5.73828 13.1035 5.73828 18.6497C5.73828 24.1959 10.2344 28.692 15.7805 28.692Z" stroke="white" stroke-width="4.30383" stroke-linecap="round" stroke-linejoin="round"/>
<path d="M15.7805 60.2525C21.3267 60.2525 25.8228 55.7564 25.8228 50.2102C25.8228 44.664 21.3267 40.168 15.7805 40.168C10.2344 40.168 5.73828 44.664 5.73828 50.2102C5.73828 55.7564 10.2344 60.2525 15.7805 60.2525Z" stroke="white" stroke-width="4.30383" stroke-linecap="round" stroke-linejoin="round"/>
<path d="M63.1224 17.2168L24.8184 45.8516" stroke="white" stroke-width="4.30383" stroke-linecap="round" stroke-linejoin="round"/>
<path d="M63.1224 51.5619L24.8184 22.8984" stroke="white" stroke-width="4.30383" stroke-linecap="round" stroke-linejoin="round"/>
</svg>
