<svg width="70" height="70" viewBox="0 0 70 70" fill="none" xmlns="http://www.w3.org/2000/svg">
<path d="M10.1321 59.346C12.5348 61.7487 16.4139 61.7487 18.8166 59.346L56.4495 21.7131C58.8522 19.3104 58.8522 15.4313 56.4495 13.0286C54.0468 10.6259 50.1677 10.6259 47.765 13.0286L10.1321 50.6615C7.7294 53.0642 7.7294 56.9433 10.1321 59.346Z" stroke="white" stroke-opacity="0.8" stroke-width="4.34226" stroke-linecap="round" stroke-linejoin="round"/>
<path d="M52.1357 26.0263L43.4512 17.3418" stroke="white" stroke-opacity="0.8" stroke-width="4.34226" stroke-linecap="round" stroke-linejoin="round"/>
<path d="M24.6059 7.06474L28.9482 5.79102L27.6745 10.1333L28.9482 14.4755L24.6059 13.2018L20.2637 14.4755L21.5374 10.1333L20.2637 5.79102L24.6059 7.06474Z" stroke="white" stroke-opacity="0.8" stroke-width="2.89484" stroke-linecap="round" stroke-linejoin="round"/>
<path d="M13.0268 24.4319L17.3691 23.1582L16.0954 27.5005L17.3691 31.8427L13.0268 30.569L8.68457 31.8427L9.9583 27.5005L8.68457 23.1582L13.0268 24.4319Z" stroke="white" stroke-opacity="0.8" stroke-width="2.89484" stroke-linecap="round" stroke-linejoin="round"/>
<path d="M56.4492 38.9065L60.7914 37.6328L59.5177 41.9751L60.7914 46.3173L56.4492 45.0436L52.1069 46.3173L53.3807 41.9751L52.1069 37.6328L56.4492 38.9065Z" stroke="white" stroke-opacity="0.8" stroke-width="2.89484" stroke-linecap="round" stroke-linejoin="round"/>
</svg>
