<svg width="66" height="66" viewBox="0 0 66 66" fill="none" xmlns="http://www.w3.org/2000/svg">
<path d="M22.6695 30.1846H15.9736C13.5185 30.1846 11.5098 28.1759 11.5098 25.7207V21.2568C11.5098 18.8017 13.5185 16.793 15.9736 16.793H22.6695C25.1246 16.793 27.1333 18.8017 27.1333 21.2568V25.7207C27.1333 28.1759 25.1246 30.1846 22.6695 30.1846Z" stroke="white" stroke-opacity="0.8" stroke-width="3.34791" stroke-linecap="round" stroke-linejoin="round"/>
<path d="M53.4702 27.9531H45.4352C43.9621 27.9531 42.7568 26.7479 42.7568 25.2748V21.7037C42.7568 20.2307 43.9621 19.0254 45.4352 19.0254H53.4702C54.9432 19.0254 56.1485 20.2307 56.1485 21.7037V25.2748C56.1485 26.7479 54.9432 27.9531 53.4702 27.9531Z" stroke="white" stroke-opacity="0.8" stroke-width="3.34791" stroke-linecap="round" stroke-linejoin="round"/>
<path d="M53.4702 44.6914H45.4352C43.9621 44.6914 42.7568 43.4862 42.7568 42.0131V38.442C42.7568 36.9689 43.9621 35.7637 45.4352 35.7637H53.4702C54.9432 35.7637 56.1485 36.9689 56.1485 38.442V42.0131C56.1485 43.4862 54.9432 44.6914 53.4702 44.6914Z" stroke="white" stroke-opacity="0.8" stroke-width="3.34791" stroke-linecap="round" stroke-linejoin="round"/>
<path d="M27.1333 23.4883H42.7569" stroke="white" stroke-opacity="0.8" stroke-width="3.34791" stroke-miterlimit="10" stroke-linecap="round" stroke-linejoin="round"/>
<path d="M34.9453 40.2285H42.7571" stroke="white" stroke-opacity="0.8" stroke-width="3.34791" stroke-miterlimit="10" stroke-linecap="round" stroke-linejoin="round"/>
<path d="M53.4702 61.4317H45.4352C43.9621 61.4317 42.7568 60.2264 42.7568 58.7533V55.1823C42.7568 53.7092 43.9621 52.5039 45.4352 52.5039H53.4702C54.9432 52.5039 56.1485 53.7092 56.1485 55.1823V58.7533C56.1485 60.2264 54.9432 61.4317 53.4702 61.4317Z" stroke="white" stroke-opacity="0.8" stroke-width="3.34791" stroke-linecap="round" stroke-linejoin="round"/>
</svg>
